<mxfile host="app.diagrams.net" modified="2023-09-11T05:47:06.582Z" agent="Mozilla/5.0 (Macintosh; Intel Mac OS X 10_15_7) AppleWebKit/537.36 (KHTML, like Gecko) Chrome/116.0.0.0 Safari/537.36" etag="XQOm-DCN5MiV4Hw7urR3" version="21.7.4" type="github">
  <diagram name="Page-1" id="jp3r_Lxd7qOVZv0NYCmw">
    <mxGraphModel dx="1245" dy="638" grid="1" gridSize="10" guides="1" tooltips="1" connect="1" arrows="1" fold="1" page="1" pageScale="1" pageWidth="1100" pageHeight="850" math="0" shadow="0">
      <root>
        <mxCell id="0" />
        <mxCell id="1" parent="0" />
        <mxCell id="y9E3qnG0v2pf7CJnatLh-1" value="Game Tebak Angka" style="rounded=0;whiteSpace=wrap;html=1;verticalAlign=top;fontSize=17;" vertex="1" parent="1">
          <mxGeometry x="350" y="130" width="290" height="350" as="geometry" />
        </mxCell>
        <mxCell id="y9E3qnG0v2pf7CJnatLh-2" value="Komputer" style="shape=umlActor;verticalLabelPosition=bottom;verticalAlign=top;html=1;outlineConnect=0;" vertex="1" parent="1">
          <mxGeometry x="180" y="240" width="75" height="150" as="geometry" />
        </mxCell>
        <mxCell id="y9E3qnG0v2pf7CJnatLh-3" value="User" style="shape=umlActor;verticalLabelPosition=bottom;verticalAlign=top;html=1;outlineConnect=0;" vertex="1" parent="1">
          <mxGeometry x="740" y="240" width="75" height="150" as="geometry" />
        </mxCell>
        <mxCell id="y9E3qnG0v2pf7CJnatLh-4" value="Random Angka" style="ellipse;whiteSpace=wrap;html=1;" vertex="1" parent="1">
          <mxGeometry x="417.5" y="200" width="155" height="80" as="geometry" />
        </mxCell>
        <mxCell id="y9E3qnG0v2pf7CJnatLh-5" value="Tebak Angka" style="ellipse;whiteSpace=wrap;html=1;" vertex="1" parent="1">
          <mxGeometry x="417.5" y="340" width="155" height="80" as="geometry" />
        </mxCell>
        <mxCell id="y9E3qnG0v2pf7CJnatLh-6" value="" style="endArrow=none;html=1;rounded=0;entryX=0;entryY=0.5;entryDx=0;entryDy=0;" edge="1" parent="1" source="y9E3qnG0v2pf7CJnatLh-2" target="y9E3qnG0v2pf7CJnatLh-4">
          <mxGeometry width="50" height="50" relative="1" as="geometry">
            <mxPoint x="520" y="350" as="sourcePoint" />
            <mxPoint x="570" y="300" as="targetPoint" />
          </mxGeometry>
        </mxCell>
        <mxCell id="y9E3qnG0v2pf7CJnatLh-7" value="" style="endArrow=none;html=1;rounded=0;" edge="1" parent="1" source="y9E3qnG0v2pf7CJnatLh-5" target="y9E3qnG0v2pf7CJnatLh-3">
          <mxGeometry width="50" height="50" relative="1" as="geometry">
            <mxPoint x="520" y="350" as="sourcePoint" />
            <mxPoint x="570" y="300" as="targetPoint" />
          </mxGeometry>
        </mxCell>
      </root>
    </mxGraphModel>
  </diagram>
</mxfile>
